<?xml version="1.0" encoding="iso-8859-1"?>
<!-- Generator: Adobe Illustrator 16.0.0, SVG Export Plug-In . SVG Version: 6.00 Build 0)  -->
<!DOCTYPE svg PUBLIC "-//W3C//DTD SVG 1.1//EN" "http://www.w3.org/Graphics/SVG/1.1/DTD/svg11.dtd">
<svg version="1.1" id="Capa_1" xmlns="http://www.w3.org/2000/svg" xmlns:xlink="http://www.w3.org/1999/xlink" x="0px" y="0px"
	 width="497.25px" height="497.25px" viewBox="0 0 497.25 497.25" style="enable-background:new 0 0 497.25 497.25;"
	 xml:space="preserve">
<g>
	<g>
		<path d="M439.875,47.812c0-21.038-17.213-38.25-38.25-38.25H38.25C17.212,9.562,0,26.775,0,47.812v57.375h439.875V47.812z"/>
		<path d="M392.062,258.188c17.213,0,32.513,3.825,47.812,9.562V124.312H0v286.875c0,21.037,17.212,38.25,38.25,38.25h248.625
			C275.4,430.312,267.75,407.362,267.75,382.5C267.75,313.65,323.213,258.188,392.062,258.188z"/>
		<path d="M392.062,277.312c-57.375,0-105.188,47.812-105.188,105.188s47.812,105.188,105.188,105.188S497.25,439.875,497.25,382.5
			S449.438,277.312,392.062,277.312z M459,392.062h-57.375v57.375H382.5v-57.375h-57.375v-19.125H382.5v-57.375h19.125v57.375H459
			V392.062z"/>
	</g>
</g>
<g>
</g>
<g>
</g>
<g>
</g>
<g>
</g>
<g>
</g>
<g>
</g>
<g>
</g>
<g>
</g>
<g>
</g>
<g>
</g>
<g>
</g>
<g>
</g>
<g>
</g>
<g>
</g>
<g>
</g>
</svg>
