<?xml version="1.0" encoding="iso-8859-1"?>
<!-- Generator: Adobe Illustrator 16.0.0, SVG Export Plug-In . SVG Version: 6.00 Build 0)  -->
<!DOCTYPE svg PUBLIC "-//W3C//DTD SVG 1.1//EN" "http://www.w3.org/Graphics/SVG/1.1/DTD/svg11.dtd">
<svg version="1.1" id="Capa_1" xmlns="http://www.w3.org/2000/svg" xmlns:xlink="http://www.w3.org/1999/xlink" x="0px" y="0px"
	 width="66px" height="66px" viewBox="0 0 66 66" style="enable-background:new 0 0 66 66;" xml:space="preserve">
<g>
	<g>
		<g>
			<path d="M33,51c-6.893,0-12.5-5.607-12.5-12.5v-26C20.5,5.607,26.107,0,33,0c6.893,0,12.5,5.607,12.5,12.5v26
				C45.5,45.393,39.893,51,33,51z M33,4c-4.688,0-8.5,3.813-8.5,8.5v26c0,4.686,3.813,8.5,8.5,8.5c4.688,0,8.5-3.814,8.5-8.5v-26
				C41.5,7.813,37.688,4,33,4z"/>
		</g>
		<g>
			<g>
				<path d="M27.5,21c-0.553,0-1-0.447-1-1v-8.518C26.5,8.801,28.225,7,31.351,7h0.774c0.553,0,1,0.447,1,1s-0.447,1-1,1h-0.774
					C30.594,9,28.5,9.179,28.5,11.482V20C28.5,20.553,28.052,21,27.5,21z"/>
			</g>
			<g>
				<path d="M27.5,25c-0.553,0-1-0.447-1-1v-1c0-0.553,0.447-1,1-1c0.552,0,1,0.447,1,1v1C28.5,24.553,28.052,25,27.5,25z"/>
			</g>
		</g>
		<g>
			<path d="M33.091,59h-0.212C21.086,59,11.5,48.999,11.5,37.159V36c0-1.105,0.896-2,2-2s2,0.895,2,2v1.158
				C15.5,46.663,23.421,55,32.879,55h0.212C42.324,55,50.5,46.829,50.5,37.159V36c0-1.105,0.896-2,2-2s2,0.895,2,2v1.158
				C54.5,49.202,44.689,59,33.091,59z"/>
		</g>
		<g>
			<path d="M41.125,66H24.124c-1.104,0-2-0.896-2-2c0-1.105,0.896-2,2-2h17.001c1.104,0,2,0.895,2,2
				C43.125,65.104,42.229,66,41.125,66z"/>
		</g>
		<g>
			<path d="M32.5,64c-1.104,0-2-0.896-2-2v-5c0-1.105,0.896-2,2-2c1.104,0,2,0.895,2,2v5C34.5,63.104,33.604,64,32.5,64z"/>
		</g>
	</g>
</g>
<g>
</g>
<g>
</g>
<g>
</g>
<g>
</g>
<g>
</g>
<g>
</g>
<g>
</g>
<g>
</g>
<g>
</g>
<g>
</g>
<g>
</g>
<g>
</g>
<g>
</g>
<g>
</g>
<g>
</g>
</svg>
